<!--?xml version="1.0" standalone="no"?-->              <svg id="sw-js-blob-svg" viewBox="0 0 100 100" xmlns="http://www.w3.org/2000/svg">                    <defs>                         <linearGradient id="sw-gradient" x1="0" x2="1" y1="1" y2="0">                            <stop id="stop1" stop-color="rgba(55, 120.503, 248, 1)" offset="0%"></stop>                            <stop id="stop2" stop-color="rgba(45.77, 31, 251, 1)" offset="100%"></stop>                        </linearGradient>                    </defs>                <path fill="url(#sw-gradient)" d="M26,-31.3C33.1,-25,37.8,-16.3,37.8,-7.9C37.7,0.4,33,8.4,28.4,16.4C23.7,24.4,19.3,32.6,12.8,34.7C6.4,36.7,-2,32.7,-8.9,28.5C-15.7,24.2,-21,19.7,-23.8,14.1C-26.7,8.4,-27.3,1.8,-27.7,-6.5C-28.1,-14.7,-28.4,-24.5,-23.8,-31.2C-19.2,-37.9,-9.6,-41.5,-0.1,-41.4C9.5,-41.3,18.9,-37.6,26,-31.3Z" width="100%" height="100%" transform="translate(50 50)" stroke-width="0" style="transition: all 0.3s ease 0s;"></path>              </svg>